<svg xmlns="http://www.w3.org/2000/svg" viewBox="0 0 32 40" x="0px" y="0px"><title>8-Check</title><g data-name="8-Check"><path fill='#BCBCBC' d="M16,32A16,16,0,1,1,32,16,16,16,0,0,1,16,32ZM16,2A14,14,0,1,0,30,16,14,14,0,0,0,16,2Z"/><path fill='#BCBCBC' d="M13,22a1,1,0,0,1-.71-.29l-5-5,1.41-1.41L13,19.59,23.29,9.29l1.41,1.41-11,11A1,1,0,0,1,13,22Z"/></g><text x="0" y="47" fill="#FFFFFF" font-size="5px" font-weight="bold" font-family="'Helvetica Neue', Helvetica, Arial-Unicode, Arial, Sans-serif">Created by NoNsEnSe ThInGs</text><text x="0" y="52" fill="#FFFFFF" font-size="5px" font-weight="bold" font-family="'Helvetica Neue', Helvetica, Arial-Unicode, Arial, Sans-serif">from the Noun Project</text></svg>