<svg xmlns="http://www.w3.org/2000/svg" xmlns:xlink="http://www.w3.org/1999/xlink" version="1.1" x="0px" y="0px" viewBox="0 0 100 125" style="enable-background:new 0 0 100 100;" xml:space="preserve"><path d="M97.5,50c0,26.2-21.3,47.5-47.5,47.5S2.5,76.2,2.5,50S23.8,2.5,50,2.5S97.5,23.8,97.5,50z M50,10c-22.1,0-40,17.9-40,40  s17.9,40,40,40s40-17.9,40-40S72.1,10,50,10z M55,74.6v-30c0-2.8-2.2-5-5-5h0c-2.8,0-5,2.2-5,5v30c0,2.8,2.2,5,5,5h0  C52.8,79.6,55,77.4,55,74.6z M50,20.4c-3.9,0-7,3.1-7,7s3.1,7,7,7s7-3.1,7-7S53.9,20.4,50,20.4z"/></svg>