<svg xmlns="http://www.w3.org/2000/svg" version="1.1" viewBox="-5.0 -10.0 110.0 135.0">
 <path d="m59.445 55.215c4.5312-5.9766 5.707-13.848 3.1133-20.887-2.5898-7.0352-8.5898-12.266-15.914-13.875s-14.961 0.625-20.266 5.9258c-5.3008 5.3047-7.5352 12.941-5.9258 20.266s6.8398 13.324 13.875 15.914c7.0391 2.5938 14.91 1.418 20.887-3.1133l21.555 21.555 4.2305-4.2305zm-17.488 2.7148v-0.003907c-4.2344 0-8.2969-1.6836-11.293-4.6758-2.9922-2.9961-4.6758-7.0586-4.6758-11.293s1.6836-8.2969 4.6758-11.293c2.9961-2.9922 7.0586-4.6758 11.293-4.6758s8.2969 1.6836 11.293 4.6758c2.9922 2.9961 4.6758 7.0586 4.6758 11.293-0.003906 4.2344-1.6875 8.293-4.6836 11.285-2.9922 2.9961-7.0508 4.6797-11.285 4.6836z" fill-rule="evenodd" fill="#FFFFFF"/>
<text x="0.0" y="117.5" font-size="5.0" font-weight="bold" font-family="Arbeit Regular, Helvetica, Arial-Unicode, Arial, Sans-serif" fill="#ffffff"></text><text x="0.0" y="122.5" font-size="5.0" font-weight="bold" font-family="Arbeit Regular, Helvetica, Arial-Unicode, Arial, Sans-serif" fill="#ffffff"></text></svg>