<svg xmlns="http://www.w3.org/2000/svg" version="1.1" viewBox="-5.0 -10.0 110.0 135.0">
    <path fill="#ffffff" d="m85.148 75.453-0.039063-15-1.2227-1.0859c-0.074219-0.070313-7.875-7.2109-7.875-26.457 0.003906-7.1758-6.5469-22.91-26.012-22.91-19.469 0-26.02 15.734-26.02 22.914 0 19.246-7.7969 26.387-7.8398 26.426l-1.293 1.0898v15.023h19.516c0.63281 8.1172 7.3633 14.547 15.637 14.547 8.2812 0 15.016-6.4414 15.637-14.547zm-63.027-11.863c2.8047-3.1914 9.1328-12.426 9.1328-30.676 0-0.15625 1.3984-15.641 18.746-15.641s18.742 15.484 18.742 15.641c0 18.25 6.3281 27.484 9.1328 30.676v4.5938h-55.754zm27.879 19.137c-4.2617 0-7.7695-3.1719-8.3633-7.2734h16.727c-0.59375 4.1016-4.1016 7.2734-8.3633 7.2734z"/>
    <text x="10" y="117.5" font-size="5.0" font-weight="bold" font-family="Arial, Helvetica, sans-serif" fill="#ffffff"></text>
    <text x="10" y="122.5" font-size="5.0" font-weight="bold" font-family="Arial, Helvetica, sans-serif" fill="#ffffff"></text>
</svg>
